# xmcd
#
# Track frame offsets:
#	150
#	12987
#	22942
#	33515
#	43200
#	56250
#	74275
#	92167
#	104797
#	119557
#	139260
#	155195
#	160252
#	193590
#	214407
#	234332
#
# Disc length: 3487 seconds
#
# Revision: 1
# Processed by: cddbd v1.5.1PL0 Copyright (c) Steve Scherf et al.
# Submitted via: CDex 1.50Beta5
#
DISCID=e90d9d10
DTITLE=オリジナル・サウンドトラック - The Best of Cine Jazz
DYEAR=1900
DGENRE=Jazz
TTITLE0=Miles Davis/死刑台のエレベーターのテーマ
TTITLE1=Miles Davis/L'assassinat De Carala
TTITLE2=Miles Davis/Sou L'autoroute
TTITLE3=Miles Davis/エレベーターの中のジュリアン
TTITLE4=Miles Davis/シャンゼリゼを歩むフロランス
TTITLE5=Miles Davis/モーテルのディナー
TTITLE6=Miles Davis/Ches Le Photegraphe Du Motel
TTITLE7=Art Blakey and the Jazz Messangers/テーマ(殺られる)
TTITLE8=Art Blakey and the Jazz Messangers/Blues Pour Doudou
TTITLE9=Art Blakey and the Jazz Messangers/Blues Pour Marcel
TTITLE10=Art Blakey and the Jazz Messangers/Blues Pour Vava
TTITLE11=Art Blakey and the Jazz Messangers/Des Femmes Disparaissent
TTITLE12=Art Blakey and the Jazz Messangers/No Problem (1st Version)
TTITLE13=Art Blakey and the Afrovubanboys/No Hay Problema (1st Version)
TTITLE14=Art Blakey and the Jazz Messangers/ミゲルのパーティー
TTITLE15=Art Blakey and the Jazz Messangers/No Problem (2nd Version)
EXTD=
EXTT0=
EXTT1=
EXTT2=
EXTT3=
EXTT4=
EXTT5=
EXTT6=
EXTT7=
EXTT8=
EXTT9=
EXTT10=
EXTT11=
EXTT12=
EXTT13=
EXTT14=
EXTT15=
PLAYORDER=
